<?xml version="1.0" encoding="utf-8"?>
<!-- Generator: Adobe Illustrator 24.2.3, SVG Export Plug-In . SVG Version: 6.00 Build 0)  -->
<svg version="1.1" id="Layer_1" xmlns="http://www.w3.org/2000/svg" xmlns:xlink="http://www.w3.org/1999/xlink" x="0px" y="0px"
	 viewBox="0 0 103.52 51" style="enable-background:new 0 0 103.52 51;" xml:space="preserve">
<style type="text/css">
	.st0{fill:#102749;}
	.st1{fill:#EB2030;}
	.st2{fill:#06B3D7;}
	.st3{fill:#EA272A;}
	.st4{fill:#101334;}
</style>
<g>
	<polygon class="st0" points="53.14,26.56 49.36,35.3 47.36,35.3 43.59,26.56 45.77,26.56 48.43,32.8 51.13,26.56 	"/>
	<rect x="53.86" y="26.56" class="st0" width="2.02" height="8.74"/>
	<path class="st0" d="M59.72,34.87c-0.72-0.39-1.29-0.92-1.7-1.61c-0.41-0.69-0.62-1.46-0.62-2.33c0-0.87,0.21-1.64,0.62-2.33
		c0.41-0.69,0.98-1.22,1.7-1.61c0.72-0.39,1.53-0.58,2.43-0.58c0.76,0,1.44,0.13,2.05,0.4c0.61,0.27,1.13,0.65,1.54,1.15l-1.3,1.2
		c-0.59-0.68-1.32-1.02-2.2-1.02c-0.54,0-1.02,0.12-1.45,0.36c-0.42,0.24-0.76,0.57-0.99,0.99c-0.24,0.42-0.36,0.91-0.36,1.45
		c0,0.54,0.12,1.02,0.36,1.45c0.24,0.42,0.57,0.76,0.99,0.99c0.42,0.24,0.91,0.35,1.45,0.35c0.87,0,1.61-0.34,2.2-1.04l1.3,1.2
		c-0.42,0.51-0.93,0.89-1.55,1.16c-0.62,0.27-1.3,0.4-2.06,0.4C61.25,35.45,60.44,35.26,59.72,34.87"/>
	<polygon class="st0" points="68.83,28.21 66.04,28.21 66.04,26.56 73.65,26.56 73.65,28.21 70.85,28.21 70.85,35.3 68.83,35.3 	"/>
	<path class="st0" d="M76.39,34.86c-0.73-0.39-1.3-0.93-1.71-1.62c-0.41-0.69-0.62-1.46-0.62-2.32c0-0.86,0.21-1.63,0.62-2.32
		c0.41-0.69,0.98-1.23,1.71-1.62c0.73-0.39,1.55-0.59,2.45-0.59c0.91,0,1.72,0.2,2.45,0.59c0.72,0.39,1.29,0.93,1.71,1.62
		c0.42,0.69,0.62,1.46,0.62,2.32c0,0.86-0.21,1.63-0.62,2.32c-0.42,0.69-0.99,1.23-1.71,1.62c-0.72,0.39-1.54,0.59-2.45,0.59
		C77.94,35.45,77.12,35.25,76.39,34.86 M80.24,33.37c0.42-0.24,0.74-0.57,0.98-0.99c0.24-0.43,0.36-0.91,0.36-1.45
		c0-0.54-0.12-1.02-0.36-1.45c-0.24-0.42-0.56-0.75-0.98-0.99c-0.42-0.24-0.88-0.36-1.4-0.36c-0.52,0-0.98,0.12-1.4,0.36
		c-0.42,0.24-0.74,0.57-0.98,0.99c-0.24,0.42-0.36,0.91-0.36,1.45c0,0.54,0.12,1.02,0.36,1.45c0.24,0.42,0.56,0.76,0.98,0.99
		c0.42,0.24,0.88,0.35,1.4,0.35C79.36,33.72,79.83,33.61,80.24,33.37"/>
	<path class="st0" d="M90.72,35.3l-1.69-2.43h-0.1h-1.76v2.43h-2.02v-8.74h3.78c0.77,0,1.45,0.13,2.02,0.39
		c0.57,0.26,1.01,0.62,1.32,1.1c0.31,0.47,0.46,1.04,0.46,1.69c0,0.65-0.16,1.21-0.47,1.68c-0.31,0.47-0.75,0.83-1.33,1.08
		l1.96,2.81H90.72z M90.21,28.6c-0.32-0.26-0.78-0.39-1.39-0.39h-1.65v3.05h1.65c0.61,0,1.07-0.13,1.39-0.4
		c0.32-0.27,0.47-0.64,0.47-1.12C90.68,29.24,90.52,28.86,90.21,28.6"/>
	<polygon class="st0" points="98.4,32.2 98.4,35.3 96.37,35.3 96.37,32.18 92.99,26.56 95.14,26.56 97.47,30.44 99.81,26.56 
		101.79,26.56 	"/>
</g>
<g>
	<path class="st1" d="M37.39,42.86h1.85v3.54c-0.48,0.36-1.02,0.63-1.65,0.83c-0.62,0.19-1.25,0.29-1.89,0.29
		c-0.91,0-1.72-0.19-2.45-0.58c-0.72-0.39-1.29-0.93-1.7-1.61c-0.41-0.69-0.62-1.46-0.62-2.33c0-0.87,0.21-1.64,0.62-2.33
		c0.41-0.69,0.98-1.22,1.72-1.61c0.73-0.39,1.56-0.58,2.47-0.58c0.77,0,1.46,0.13,2.09,0.39c0.62,0.26,1.15,0.63,1.57,1.12l-1.3,1.2
		c-0.62-0.66-1.38-0.99-2.26-0.99c-0.56,0-1.05,0.12-1.49,0.35c-0.43,0.23-0.77,0.56-1.01,0.99c-0.24,0.42-0.36,0.91-0.36,1.46
		c0,0.54,0.12,1.02,0.36,1.45c0.24,0.42,0.58,0.75,1.01,0.99c0.43,0.24,0.92,0.36,1.47,0.36c0.58,0,1.11-0.12,1.57-0.37V42.86z"/>
	<polygon class="st1" points="47.88,45.75 47.88,47.37 41.12,47.37 41.12,38.63 47.72,38.63 47.72,40.25 43.13,40.25 43.13,42.15 
		47.18,42.15 47.18,43.72 43.13,43.72 43.13,45.75 	"/>
	<polygon class="st1" points="57.51,38.63 57.51,47.37 55.85,47.37 51.49,42.06 51.49,47.37 49.49,47.37 49.49,38.63 51.17,38.63 
		55.51,43.94 55.51,38.63 	"/>
	<path class="st1" d="M61.36,46.93c-0.73-0.39-1.3-0.93-1.71-1.62c-0.41-0.69-0.62-1.46-0.62-2.32c0-0.86,0.21-1.63,0.62-2.32
		c0.41-0.69,0.98-1.23,1.71-1.62c0.73-0.39,1.55-0.59,2.45-0.59c0.91,0,1.72,0.2,2.45,0.59c0.72,0.39,1.29,0.93,1.71,1.62
		c0.42,0.69,0.62,1.46,0.62,2.32c0,0.86-0.21,1.63-0.62,2.32c-0.42,0.69-0.99,1.23-1.71,1.62c-0.72,0.39-1.54,0.59-2.45,0.59
		C62.91,47.52,62.09,47.32,61.36,46.93 M65.21,45.44c0.42-0.24,0.74-0.57,0.98-0.99c0.24-0.43,0.36-0.91,0.36-1.45
		c0-0.54-0.12-1.02-0.36-1.45c-0.24-0.42-0.56-0.76-0.98-0.99c-0.42-0.24-0.88-0.36-1.4-0.36c-0.52,0-0.98,0.12-1.4,0.36
		c-0.42,0.24-0.74,0.57-0.98,0.99c-0.24,0.42-0.36,0.91-0.36,1.45c0,0.54,0.12,1.02,0.36,1.45c0.24,0.42,0.56,0.75,0.98,0.99
		c0.42,0.24,0.88,0.36,1.4,0.36C64.33,45.79,64.8,45.68,65.21,45.44"/>
	<polygon class="st1" points="78.07,47.37 78.06,42.12 75.49,46.44 74.58,46.44 72.02,42.24 72.02,47.37 70.12,47.37 70.12,38.63 
		71.79,38.63 75.06,44.06 78.28,38.63 79.94,38.63 79.97,47.37 	"/>
	<rect x="82.04" y="38.63" class="st1" width="2.02" height="8.74"/>
	<path class="st1" d="M87.9,46.94c-0.72-0.39-1.29-0.93-1.7-1.61c-0.41-0.69-0.62-1.46-0.62-2.33c0-0.87,0.21-1.64,0.62-2.33
		c0.41-0.69,0.98-1.22,1.7-1.61c0.72-0.39,1.53-0.58,2.43-0.58c0.76,0,1.44,0.13,2.05,0.4c0.61,0.27,1.13,0.65,1.54,1.15l-1.3,1.2
		c-0.59-0.68-1.32-1.02-2.2-1.02c-0.54,0-1.02,0.12-1.45,0.36c-0.42,0.24-0.76,0.57-0.99,0.99c-0.24,0.42-0.36,0.91-0.36,1.45
		c0,0.54,0.12,1.02,0.36,1.45c0.24,0.42,0.57,0.75,0.99,0.99c0.42,0.24,0.91,0.36,1.45,0.36c0.87,0,1.61-0.34,2.2-1.04l1.3,1.2
		c-0.42,0.51-0.93,0.89-1.55,1.16c-0.62,0.27-1.3,0.4-2.06,0.4C89.43,47.52,88.62,47.33,87.9,46.94"/>
	<path class="st1" d="M96.08,47.24c-0.64-0.19-1.16-0.43-1.55-0.73l0.69-1.52c0.37,0.27,0.82,0.5,1.34,0.66
		c0.52,0.17,1.03,0.25,1.55,0.25c0.57,0,1-0.08,1.27-0.26c0.27-0.17,0.41-0.4,0.41-0.68c0-0.21-0.08-0.38-0.24-0.52
		c-0.16-0.14-0.37-0.25-0.62-0.33c-0.25-0.08-0.6-0.17-1.03-0.27c-0.67-0.16-1.21-0.32-1.64-0.47c-0.42-0.16-0.79-0.41-1.09-0.76
		c-0.3-0.35-0.46-0.81-0.46-1.4c0-0.51,0.14-0.97,0.41-1.38c0.27-0.41,0.69-0.74,1.24-0.98c0.55-0.24,1.23-0.36,2.03-0.36
		c0.56,0,1.1,0.07,1.64,0.2c0.53,0.13,1,0.33,1.4,0.58l-0.62,1.53c-0.81-0.46-1.61-0.69-2.42-0.69c-0.57,0-0.99,0.09-1.25,0.27
		c-0.27,0.18-0.41,0.42-0.41,0.72c0,0.3,0.16,0.52,0.47,0.67c0.31,0.15,0.79,0.29,1.43,0.43c0.67,0.16,1.21,0.32,1.64,0.47
		c0.43,0.16,0.79,0.41,1.09,0.75c0.3,0.34,0.46,0.8,0.46,1.39c0,0.5-0.14,0.96-0.42,1.37c-0.28,0.41-0.7,0.74-1.25,0.98
		c-0.56,0.24-1.24,0.36-2.03,0.36C97.39,47.52,96.73,47.42,96.08,47.24"/>
</g>
<path class="st2" d="M24.84,8.79c0,0,0.27,1.53,1.66,2.16c1.38,0.64,4.48,0.55,4.48,0.55s0.63,0.68,0.84,0.86
	c0,0-0.03-0.87-0.54-1.78l2.22,1.52c0,0-0.82,1.92-1.66,2.29l-1.12-1.48c0,0-2.82,0.11-3.99-0.38
	C25.55,12.04,24.48,11.28,24.84,8.79"/>
<path class="st1" d="M24.06,15.8c0,0,3.29,1.1,3.94,3.8c0,0-0.98,2.22-0.29,3.67c0,0-1.66,0.1-2.93-1.05c0,0,0.27,1.55,1.23,2.46
	c0,0-1.47,0.28-2.16,0.23c0,0,1.28,0.84,3.86,0.57l2.87,0.63c0,0,2.39-2.69,2.45-3.23c0.07-0.54,1.84-3.98,1.84-3.98l-1.6,0.59
	l-2.74,1.39c0,0-0.64-3.36-2.07-4.17C27.03,15.89,25.38,15.7,24.06,15.8"/>
<path class="st1" d="M23.53,2.3c0,0,2.35,0.27,2.8,2.24"/>
<path class="st1" d="M26.33,4.53c0,0-0.86-0.48-1.18-0.54c0,0,0.24,0.85,1.1,1.41c0,0-5.45,1.43-6.12,6.11
	c-0.67,4.68-0.14,6.22-1.2,8.58l-0.44-1.88c0,0-0.22-5.08,0.07-6.65c0.29-1.56,1.7-5.65,5.2-6.45l0.65-0.32c0,0-0.88-1.89-0.88-2.5"
	/>
<path class="st3" d="M4.67,44.43c0,0,0.17,1.84,0.03,3.25c-0.14,1.41-1.26,2.46-1.26,2.46C3.88,49.47,4,48.29,4.02,47.5
	c0-0.13-0.03-0.25-0.1-0.36l-1.6-2.55l1.55,1.52c0.12,0.11,0.31,0.05,0.34-0.11c0.17-0.89,0.12-1.89,0.12-1.89L4.67,44.43z"/>
<path class="st0" d="M17.53,31.48c0,0,0.09-2.67,2.82-0.49c0,0-2.65-2.3-2.13-7.69c0,0,1.65-3.31,3.57-4.66c0,0-3.72,1.87-5.12,4.51
	C16.68,23.15,16.04,28.08,17.53,31.48"/>
<path class="st2" d="M18.42,31.78c2.34,0.5,4-0.1,4-0.1l-2.73-4.33c0,0,3.24,3.72,5.41,4.59c0,0,3.04,1.28,5.8-1.99
	c0,0-0.68,2.41-4.14,3.34c0,0-5.89,0.78-7.84-0.91L18.42,31.78z"/>
<path class="st0" d="M22.38,3.79c0,0-0.52,0.54-1.79,0.74c-1.1,0.17-2.8,0.32-3.45,1.59c1.77-0.79,3.44-0.86,3.44-0.86
	s-0.24,0.66-1.17,1.22c0,0-3.3,0.73-4.7,2.55c-0.94,1.22-1.26,2.99-0.47,4.69c0.21-0.68,0.36-1.38,0.49-2.05
	c0.47-2.53,2.79-3.1,2.92-3.14c-0.09,0.04-1.23,0.56-1.69,3.06c-0.47,2.6-0.79,4.76-2.33,5.85c0.13-0.06,2.13-1.07,2.71-2.49
	c0,0.09-0.08,1.51-1.28,2.57c-0.09,0.39-0.12,1.04,0.05,2.06c0.29,1.72,0.53,4.11-1.85,5.32c1.35-1.25,1.44-2.9,0.77-5.07
	c-0.24-0.76-0.29-1.24-0.27-1.53c-0.76,0.29-1.75,0.45-3.02,0.37c1.61-0.94,2.58-2.43,3.2-4.06c-0.66-1.21-1.38-3.34-0.08-5.64
	c0.54-0.95,1.27-1.66,2.06-2.19c0.17-2.08,2.11-2.81,3.69-2.77C21.29,4.08,22.38,3.79,22.38,3.79"/>
<path class="st4" d="M34.03,19.56c-0.03,0.02-0.06,0.05-0.09,0.07C33.99,19.6,34.02,19.58,34.03,19.56"/>
<path class="st0" d="M34.15,12.08c0,0-0.02,2.19-2.74,3.36c0,0-0.54-1.54-0.89-2.02c0,0-0.31-0.2-2.31-0.17
	c-2.02,0.03-4.62-1.43-3.38-4.46c0,0-0.05,2.34,1.45,3.04c1.49,0.7,4.59,0.41,4.59,0.41s0.57,0.69,0.94,1.52
	c0.82-0.56,1.05-1.45,1.05-1.45c-1.11-0.99-2.54-2.93-2.54-2.93c-0.4,0.1-1.01,0.15-1.01,0.15s0.53-0.73,0.68-1.47
	c0,0-1.58-1.78-2.32-3.86c0,0,2.4,2.83,3.41,3.38c0,0-0.11,0.7-0.38,0.99C30.71,8.57,32.87,11.51,34.15,12.08"/>
<path class="st0" d="M28.5,16.95c-1.17-1.23-1.34-3.37-1.34-3.37s-0.52,1.77,0.07,2.83L28.5,16.95z"/>
<path class="st0" d="M34.3,24.6c-0.66,1.18-0.18,3.15-0.09,3.49c0.62-0.34,1.31-1.33,1.77-1.99c0.15-0.21,0.28-0.4,0.38-0.52
	c0.41-0.51,1.96-1.51,2.15-1.63c0.62-3.1-0.15-7.26-0.21-7.58c-0.79-0.46-1.95-0.56-2.15-0.57c-0.22,0.39-1.75,2.16-3.05,2.95
	c-0.77,0.47-1.41,0.88-1.81,1.14l-0.05,0.03l-0.02-0.06c-1-3.66-3.92-4.21-5.56-4.21c-0.49,0-0.91,0.05-1.18,0.09
	c1.21,0.1,4.93,0.73,5.49,4.77l0,0.03l-0.03,0.01c-0.01,0.01-1.27,0.69-1.37,2.68c0.17-0.36,0.58-1.05,1.51-1.51
	c1.34-0.66,3.1-1.61,3.87-2.16l0.05,0.07c-0.26,0.21-0.9,0.82-1.35,2.12c-0.57,1.65-1.1,2.75-2.08,3.48l-0.01,0.01l-0.02,0
	c-0.14-0.01-3.16-0.3-4.63-1.4c0.21,0.28,0.59,0.74,1.14,1.23l0.07,0.07l-0.1,0.01c-0.42,0.05-0.83,0.08-1.21,0.08
	c-0.9,0-1.47-0.14-1.76-0.23c0.34,0.29,1.28,0.93,3.03,0.93c0.32,0,0.65-0.02,0.99-0.06l0.02,0l0.01,0.01
	c0.97,0.62,2.02,1.02,3.14,1.19c0.11-0.06,1.01-0.58,2.04-2.85c0.12-0.27,0.24-0.53,0.35-0.79c0.93-2.09,1.73-3.9,3.18-4.62
	l0.32-0.16l-0.27,0.23c-0.43,0.37-0.43,0.86-0.42,0.93c0.68,1.48,0.18,3.05,0.18,3.07l-0.01,0.02l-0.02,0.01
	c-1,0.57-0.91,1.85-0.91,1.86l0.01,0.09l-0.08-0.05c-0.25-0.17-0.78-0.2-1.08-0.2C34.43,24.6,34.34,24.6,34.3,24.6z"/>
<path class="st0" d="M37.59,33.33c0.12,0.12,0.52,0.57,0.56,0.83l0.01,0.04l-0.04,0.01c-0.01,0-0.56,0.13-1.02,0.16
	c-0.42,0.03-0.73,0.38-0.77,0.87c-0.09,1.21,0.09,1.88,0.54,1.99c0.02,0.01,0.04,0.01,0.07,0.01c0.7,0,2.42-2.28,2.52-2.86l0-0.02
	l0.02-0.01c0.01,0,0.85-0.47,1.04-0.73c-0.03-0.29-0.37-4.4,1.37-6.33c-0.1-0.18-0.68-1.24-1.39-1.65
	c-0.16,0.04-1.42,0.34-3.25,0.71c-0.41,0.39-0.77,0.87-1.19,1.43c-0.08,0.11-0.16,0.22-0.25,0.33c-0.94,1.23-1.84,1.49-1.88,1.5
	l-0.03,0.01l-0.02-0.03c-0.51-0.89-0.64-1.86-0.7-2.53c-0.05,0.01-0.12,0.03-0.19,0.05c-0.09,0.02-0.17,0.04-0.24,0.06
	c0,0.32-0.05,2.58-1.23,4.24c0.41-0.22,1.49-0.77,2.73-1.19c0.41-0.14,0.89-0.3,1.4-0.47c1.38-0.45,2.95-0.97,3.47-1.28l0.07-0.04
	l0,0.08C39.18,28.52,39.09,31.92,37.59,33.33z"/>
<path class="st1" d="M9.19,32.62c0,0,0.98-0.24,0.8,0.9c-0.18,1.13,2.53,2.88,4.53,4.54c0,0,1.2,0,1.15,0.66
	c-0.04,0.66-0.89,0.8-1.29-0.09c-0.4-0.9-4.39-4.16-4.88-4.16c0,0-1.91-0.33-1.42-1.42C8.57,31.96,9.19,32.62,9.19,32.62z"/>
<path class="st2" d="M6.77,34.49c0,0,1.04-0.38,0.99,0.83c-0.05,1.21,3.15,2.68,5.56,4.15c0,0,1.32-0.16,1.35,0.54
	c0.04,0.7-0.87,0.96-1.43,0.07c-0.55-0.89-5.36-3.77-5.9-3.71c0,0-2.14-0.09-1.74-1.3C6,33.88,6.77,34.49,6.77,34.49z"/>
<path class="st1" d="M13.49,41.52c0,0,0.16-1.03-1.14-0.53c-1.3,0.5-3.65-1.68-5.8-3.18c0,0-0.14-1.18-0.9-0.95
	c-0.77,0.23-0.84,1.11,0.26,1.24c1.09,0.14,5.35,3.15,5.4,3.64c0,0,0.6,1.79,1.81,1C14.34,41.95,13.49,41.52,13.49,41.52z"/>
<path class="st2" d="M10.92,30.7c0,0,1.13-0.06,1.18,1.03c0.05,0.98,0.21,0.98,0.21,0.98s0.67,0.98,1.59,1.65
	c0.93,0.67,1.34,0.93,1.34,0.93s0.33,0.19,0.69,0.14c0.36-0.05,0.89,0.62,0.58,1.18c0,0-0.84,1.18-1.59-0.82c0,0,0-0.57-1.47-1.58
	c-1.47-1.01-1.71-1.2-1.71-1.2l-1.08-0.5C10.65,32.5,8.76,31.55,10.92,30.7z"/>
<path class="st2" d="M4.98,38.62c0,0,1.06-0.12,1.17,0.89c0.1,0.9,0.25,0.9,0.25,0.9s0.69,0.87,1.6,1.44
	c0.91,0.57,1.31,0.78,1.31,0.78s0.32,0.16,0.65,0.09c0.34-0.07,0.88,0.52,0.62,1.06c0,0-0.73,1.15-1.55-0.67
	c0,0-0.03-0.52-1.48-1.38C6.1,40.86,5.86,40.7,5.86,40.7l-1.05-0.4C4.82,40.3,2.98,39.53,4.98,38.62z"/>
<path class="st0" d="M25.75,2.49c0.68,0.5,0.59,2.04,0.59,2.04"/>
<path class="st0" d="M23.98,2.89c0,0,0.21,1.5,1.44,2.23c0,0-3.82,0.65-5.36,3.68c-1.95,3.84-0.66,8.42-1.13,11.29
	c0.92-0.61,1.94-1.18,2.87-1.45c-1.76,1.04-4.22,4.17-4.3,4.27V22.9c0,0,0,0,0,0l0,0.02l-0.02,0.29c-0.03,0.4-0.04,0.81-0.06,1.22
	c-0.02,0.83-0.02,1.66-0.01,2.5c0.02,1.67,0.07,3.35,0.14,5.02l0.05,1.26l0.03,0.63c0.01,0.21,0.02,0.42,0.02,0.66
	c0.02,0.92-0.08,1.84-0.3,2.73c-0.44,1.78-1.36,3.46-2.69,4.74c-0.67,0.64-1.43,1.17-2.24,1.57c-0.82,0.41-1.68,0.68-2.56,0.85
	c-0.88,0.16-1.77,0.2-2.64,0.17c-0.44-0.01-0.87-0.06-1.3-0.12c-0.21-0.03-0.43-0.07-0.64-0.11l-0.32-0.06l-0.32-0.07
	c-0.25-0.06-0.5-0.11-0.74-0.18l-0.73-0.22c-0.12-0.04-0.24-0.08-0.36-0.12l-0.36-0.13c-0.12-0.04-0.24-0.08-0.36-0.13l-0.35-0.15
	c-0.04-0.02-0.05-0.02-0.11-0.05c-0.18-0.08-0.4-0.18-0.48-0.2c0.06,0.02,0.2,0.06,0.48,0.11c0.02,0,0.1,0.02,0.14,0.03l0.37,0.08
	c0.12,0.03,0.25,0.05,0.37,0.07l0.37,0.07c0.12,0.02,0.25,0.05,0.37,0.07L4,43.53c0.25,0.04,0.49,0.05,0.74,0.08
	c0.84,0.07,1.68,0.1,2.51,0.03c0.83-0.06,1.64-0.19,2.42-0.41c1.56-0.44,2.96-1.29,4-2.46c1.04-1.16,1.74-2.63,2.02-4.17
	c0.14-0.77,0.2-1.55,0.15-2.34c-0.05-0.86-0.1-1.72-0.13-2.59c-0.07-1.73-0.1-3.45-0.06-5.19c0.02-0.87,0.05-1.74,0.12-2.62
	c0.02-0.22,0.04-0.44,0.06-0.66l0.04-0.34l0.03-0.17c0.02-0.1,0.02-0.21,0.07-0.31c0,0,0.96-0.88,2.25-1.8
	c0.17-2.8-1.02-7.66,0.35-11.35c1.46-3.92,5.3-4.72,5.3-4.72c-2.33-1.67-1.47-4.15-1.47-4.15"/>
<path class="st0" d="M26.33,4.53c0,0-0.74-1.44-2.36-1.64"/>
<path class="st0" d="M3.46,50.34c-0.03,0.03-0.04,0.04-0.09,0.08c-0.15,0.14-0.35,0.29-0.4,0.34c-0.07,0.04,0.04,0.01,0.32-0.38
	c0.01-0.01,0.05-0.08,0.08-0.12c0.07-0.1,0.14-0.21,0.2-0.32c0.07-0.1,0.12-0.22,0.18-0.33c0.06-0.11,0.11-0.22,0.16-0.33l0.07-0.17
	l0.06-0.17c0.04-0.12,0.09-0.23,0.12-0.35l0.1-0.35c0.03-0.12,0.05-0.24,0.08-0.36c0.03-0.12,0.05-0.24,0.07-0.36
	c0.12-0.77,0.15-1.54,0.07-2.31c-0.01-0.19-0.04-0.38-0.07-0.57c-0.03-0.19-0.05-0.37-0.08-0.58c-0.06-0.4-0.13-0.81-0.18-1.22
	c-0.21-1.63-0.28-3.3-0.03-5c0.12-0.85,0.34-1.7,0.69-2.51c0.34-0.82,0.83-1.6,1.45-2.27c0.31-0.34,0.65-0.64,1.01-0.91
	c0.37-0.25,0.73-0.52,1.13-0.72c0.39-0.23,0.82-0.38,1.24-0.55l0.65-0.18l0.16-0.04l0.17-0.03l0.33-0.06
	c0.89-0.14,1.78-0.15,2.65-0.05c0.86,0.1,1.7,0.28,2.5,0.51c0.8,0.22,1.58,0.49,2.33,0.74c0.75,0.25,1.5,0.47,2.25,0.66
	c1.51,0.37,3.06,0.61,4.58,0.56l0.36-0.02l0.21-0.02c0.14-0.01,0.28-0.03,0.41-0.05c0.28-0.04,0.55-0.09,0.82-0.16
	c0,0,0.04-0.01,0.11-0.03c0.07-0.02,0.18-0.03,0.31-0.08c0.13-0.04,0.29-0.08,0.46-0.15c0.09-0.03,0.18-0.07,0.27-0.1
	c0.09-0.04,0.19-0.09,0.29-0.13c0.39-0.2,0.83-0.46,1.21-0.81c0.38-0.35,0.73-0.75,0.98-1.15c0.21-0.35,0.37-0.65,0.47-0.9
	c0.11-0.25,0.18-0.45,0.22-0.6c0.09-0.29,0.11-0.37,0.09-0.29c-0.06,0.16-0.19,1-0.64,1.94c0.01-0.02-0.01,0.03-0.06,0.14
	c-0.03,0.05-0.06,0.13-0.1,0.2c-0.05,0.08-0.1,0.17-0.16,0.27c-0.24,0.39-0.62,0.92-1.11,1.36c-0.49,0.45-1.06,0.8-1.52,1.02
	c-0.45,0.22-0.78,0.34-0.78,0.34c-0.29,0.1-0.59,0.18-0.89,0.25l-0.45,0.09l-0.38,0.06c-0.21,0.03-0.41,0.05-0.62,0.07
	c-1.66,0.13-3.32-0.06-4.91-0.39c-0.8-0.16-1.59-0.38-2.35-0.6c-0.76-0.22-1.5-0.44-2.24-0.61c-0.37-0.09-0.74-0.16-1.1-0.22
	l-0.55-0.07c-0.18-0.03-0.36-0.03-0.54-0.05c-0.09-0.01-0.18-0.02-0.27-0.02l-0.27,0c-0.18,0-0.36-0.01-0.53,0.01
	c-0.18,0.01-0.35,0.02-0.53,0.04l-0.52,0.09c-0.09,0.01-0.17,0.03-0.25,0.06l-0.25,0.07l-0.25,0.07l-0.24,0.1
	c-0.16,0.07-0.33,0.12-0.48,0.2l-0.46,0.24l-0.12,0.06l-0.11,0.07l-0.22,0.15l-0.22,0.15l-0.11,0.07l-0.1,0.08
	c-0.13,0.11-0.27,0.21-0.4,0.33c-0.12,0.12-0.25,0.24-0.37,0.36c-0.93,1.02-1.48,2.39-1.77,3.85C5.46,39,5.38,39.76,5.33,40.52
	c-0.03,0.77-0.05,1.54-0.01,2.32c0.01,0.39,0.04,0.78,0.06,1.17l0.02,0.61c0.01,0.21,0.01,0.41,0,0.62
	c-0.02,0.83-0.15,1.65-0.39,2.44c-0.03,0.13-0.08,0.25-0.13,0.37c-0.05,0.12-0.09,0.25-0.14,0.36l-0.17,0.35
	C4.52,48.89,4.45,49,4.39,49.11l-0.1,0.17l-0.11,0.16c-0.07,0.11-0.14,0.22-0.22,0.32c-0.08,0.1-0.15,0.21-0.24,0.3
	C3.64,50.16,3.55,50.25,3.46,50.34"/>
</svg>
